<svg id="Capa_1" enable-background="new 0 0 320.941 320.941" style="fill: #7d7d7d" height="512" viewBox="0 0 320.941 320.941" width="512" xmlns="http://www.w3.org/2000/svg"><path d="m74.457 101.244c-3.487-1.626-7.659-1.107-10.676 1.371l-60.177 50.147c-2.282 1.91-3.604 4.731-3.604 7.709 0 2.977 1.322 5.798 3.604 7.708l60.176 50.147c1.841 1.528 4.123 2.321 6.425 2.321 1.44 0 2.899-.313 4.251-.95 3.526-1.645 5.779-5.191 5.779-9.079v-100.294c0-3.889-2.252-7.434-5.778-9.08zm-14.281 87.963-34.476-28.737 34.476-28.737z"/><path d="m317.337 152.763-60.176-50.147c-2.997-2.498-7.169-3.036-10.676-1.371-3.526 1.645-5.779 5.191-5.779 9.079v100.294c0 3.888 2.253 7.434 5.779 9.079 1.352.637 2.801.95 4.251.95 2.302 0 4.584-.793 6.425-2.321l60.176-50.147c2.282-1.91 3.604-4.731 3.604-7.708 0-2.978-1.322-5.799-3.604-7.708zm-56.572 36.444v-57.473l34.476 28.737z"/><path d="m160.471 100.294c-33.183 0-60.176 26.993-60.176 60.176s26.993 60.176 60.176 60.176 60.176-26.993 60.176-60.176-26.993-60.176-60.176-60.176zm0 100.294c-22.125 0-40.118-17.992-40.118-40.118 0-22.125 17.992-40.118 40.118-40.118 22.125 0 40.118 17.992 40.118 40.118-.001 22.126-17.993 40.118-40.118 40.118z"/><path d="m210.618 240.706h-100.294c-3.888 0-7.434 2.253-9.079 5.779-1.655 3.516-1.117 7.679 1.371 10.676l50.147 60.176c1.91 2.282 4.731 3.604 7.708 3.604s5.798-1.322 7.708-3.604l50.147-60.176c2.488-2.997 3.026-7.16 1.371-10.676-1.645-3.526-5.191-5.779-9.079-5.779zm-50.147 54.535-28.737-34.476h57.473z"/><path d="m110.324 80.235h100.294c3.888 0 7.434-2.253 9.079-5.779 1.655-3.516 1.117-7.679-1.371-10.676l-50.147-60.176c-1.912-2.285-4.815-3.607-7.717-3.604-2.897.002-5.792 1.325-7.7 3.604l-50.147 60.176c-2.488 2.997-3.026 7.16-1.371 10.676 1.646 3.527 5.191 5.779 9.08 5.779zm50.147-54.535 28.737 34.476h-57.473z"/></svg>